frame:0    pts:260096  pts_time:16.9333
lavfi.scene_score=1.000000
frame:1    pts:261120  pts_time:17
lavfi.scene_score=0.356486
frame:2    pts:293888  pts_time:19.1333
lavfi.scene_score=0.928781
frame:3    pts:418304  pts_time:27.2333
lavfi.scene_score=0.722561
frame:4    pts:545280  pts_time:35.5
lavfi.scene_score=0.573254
frame:5    pts:555008  pts_time:36.1333
lavfi.scene_score=0.375161
frame:6    pts:620032  pts_time:40.3667
lavfi.scene_score=0.385225
frame:7    pts:655360  pts_time:42.6667
lavfi.scene_score=0.341816
frame:8    pts:706560  pts_time:46
lavfi.scene_score=0.586039
frame:9    pts:724992  pts_time:47.2
lavfi.scene_score=0.824839
frame:10   pts:794112  pts_time:51.7
lavfi.scene_score=0.886793
frame:11   pts:803840  pts_time:52.3333
lavfi.scene_score=0.673787
frame:12   pts:813056  pts_time:52.9333
lavfi.scene_score=0.330547
frame:13   pts:815616  pts_time:53.1
lavfi.scene_score=0.318788
frame:14   pts:823296  pts_time:53.6
lavfi.scene_score=0.381440
frame:15   pts:909312  pts_time:59.2
lavfi.scene_score=0.734508
frame:16   pts:1007616 pts_time:65.6
lavfi.scene_score=0.865793
frame:17   pts:1039360 pts_time:67.6667
lavfi.scene_score=0.881159
frame:18   pts:1108992 pts_time:72.2
lavfi.scene_score=0.971341
frame:19   pts:1133056 pts_time:73.7667
lavfi.scene_score=1.000000
frame:20   pts:1200128 pts_time:78.1333
lavfi.scene_score=0.418942
frame:21   pts:1250816 pts_time:81.4333
lavfi.scene_score=0.921252
frame:22   pts:1308160 pts_time:85.1667
lavfi.scene_score=0.638568
frame:23   pts:1336320 pts_time:87
lavfi.scene_score=0.929011
frame:24   pts:1405440 pts_time:91.5
lavfi.scene_score=0.899692
frame:25   pts:1452032 pts_time:94.5333
lavfi.scene_score=0.609215
frame:26   pts:1459200 pts_time:95
lavfi.scene_score=0.679848
frame:27   pts:1504256 pts_time:97.9333
lavfi.scene_score=0.606181
frame:28   pts:1524736 pts_time:99.2667
lavfi.scene_score=0.527339
frame:29   pts:1580032 pts_time:102.867
lavfi.scene_score=0.441310
frame:30   pts:1600000 pts_time:104.167
lavfi.scene_score=0.471246
frame:31   pts:1649664 pts_time:107.4
lavfi.scene_score=0.395608
frame:32   pts:1733632 pts_time:112.867
lavfi.scene_score=0.375857
frame:33   pts:1748480 pts_time:113.833
lavfi.scene_score=0.958819
frame:34   pts:1780224 pts_time:115.9
lavfi.scene_score=0.534661
frame:35   pts:1812480 pts_time:118
lavfi.scene_score=0.548608
frame:36   pts:1840640 pts_time:119.833
lavfi.scene_score=0.402642
frame:37   pts:1887744 pts_time:122.9
lavfi.scene_score=0.440727
frame:38   pts:1955328 pts_time:127.3
lavfi.scene_score=0.421789
frame:39   pts:1997824 pts_time:130.067
lavfi.scene_score=0.410743
frame:40   pts:2008576 pts_time:130.767
lavfi.scene_score=0.516938
frame:41   pts:2077696 pts_time:135.267
lavfi.scene_score=0.394728
frame:42   pts:2078208 pts_time:135.3
lavfi.scene_score=0.410095
frame:43   pts:2224128 pts_time:144.8
lavfi.scene_score=0.592672
frame:44   pts:2305536 pts_time:150.1
lavfi.scene_score=0.673982
frame:45   pts:2350080 pts_time:153
lavfi.scene_score=0.577240
frame:46   pts:2427392 pts_time:158.033
lavfi.scene_score=0.607594
frame:47   pts:2479616 pts_time:161.433
lavfi.scene_score=0.778394
frame:48   pts:2534400 pts_time:165
lavfi.scene_score=0.929542
frame:49   pts:2617344 pts_time:170.4
lavfi.scene_score=0.837865
frame:50   pts:2686464 pts_time:174.9
lavfi.scene_score=1.000000
frame:51   pts:2686976 pts_time:174.933
lavfi.scene_score=0.527373
frame:52   pts:2688000 pts_time:175
lavfi.scene_score=0.454501
frame:53   pts:2732032 pts_time:177.867
lavfi.scene_score=0.497603
frame:54   pts:2732544 pts_time:177.9
lavfi.scene_score=0.489422
frame:55   pts:3177984 pts_time:206.9
lavfi.scene_score=0.674572
frame:56   pts:3318272 pts_time:216.033
lavfi.scene_score=0.479592
frame:57   pts:3479040 pts_time:226.5
lavfi.scene_score=0.480019
frame:58   pts:3547648 pts_time:230.967
lavfi.scene_score=0.387670
frame:59   pts:3808256 pts_time:247.933
lavfi.scene_score=0.520981
frame:60   pts:4159488 pts_time:270.8
lavfi.scene_score=0.907577
frame:61   pts:4222464 pts_time:274.9
lavfi.scene_score=1.000000
frame:62   pts:4228608 pts_time:275.3
lavfi.scene_score=0.535430
frame:63   pts:4251136 pts_time:276.767
lavfi.scene_score=0.411808
frame:64   pts:4512256 pts_time:293.767
lavfi.scene_score=0.623894
frame:65   pts:4615168 pts_time:300.467
lavfi.scene_score=0.494112
frame:66   pts:4640256 pts_time:302.1
lavfi.scene_score=0.565668
frame:67   pts:4669952 pts_time:304.033
lavfi.scene_score=0.303235
frame:68   pts:4695552 pts_time:305.7
lavfi.scene_score=0.553077
frame:69   pts:4731904 pts_time:308.067
lavfi.scene_score=0.309714
frame:70   pts:4839424 pts_time:315.067
lavfi.scene_score=0.317116
frame:71   pts:4874240 pts_time:317.333
lavfi.scene_score=0.335111
frame:72   pts:4897792 pts_time:318.867
lavfi.scene_score=1.000000
frame:73   pts:4966912 pts_time:323.367
lavfi.scene_score=0.389820
frame:74   pts:4967424 pts_time:323.4
lavfi.scene_score=0.419684
frame:75   pts:4978176 pts_time:324.1
lavfi.scene_score=1.000000
frame:76   pts:5023232 pts_time:327.033
lavfi.scene_score=0.873082
frame:77   pts:5332480 pts_time:347.167
lavfi.scene_score=0.600082
frame:78   pts:5632512 pts_time:366.7
lavfi.scene_score=0.447656
frame:79   pts:5778944 pts_time:376.233
lavfi.scene_score=1.000000
frame:80   pts:5876736 pts_time:382.6
lavfi.scene_score=0.543852
frame:81   pts:5947904 pts_time:387.233
lavfi.scene_score=0.652631
frame:82   pts:6029312 pts_time:392.533
lavfi.scene_score=1.000000
frame:83   pts:6097920 pts_time:397
lavfi.scene_score=0.379436
frame:84   pts:6175232 pts_time:402.033
lavfi.scene_score=0.423178
frame:85   pts:6192128 pts_time:403.133
lavfi.scene_score=0.544728
frame:86   pts:6362624 pts_time:414.233
lavfi.scene_score=0.371993
frame:87   pts:6387200 pts_time:415.833
lavfi.scene_score=0.589479
frame:88   pts:6413312 pts_time:417.533
lavfi.scene_score=0.607235
frame:89   pts:6431744 pts_time:418.733
lavfi.scene_score=0.552792
frame:90   pts:6494720 pts_time:422.833
lavfi.scene_score=0.394555
frame:91   pts:6533632 pts_time:425.367
lavfi.scene_score=0.421900
frame:92   pts:6541824 pts_time:425.9
lavfi.scene_score=0.318709
frame:93   pts:6544896 pts_time:426.1
lavfi.scene_score=0.369150
frame:94   pts:6547968 pts_time:426.3
lavfi.scene_score=0.366644
frame:95   pts:6551040 pts_time:426.5
lavfi.scene_score=0.366005
frame:96   pts:6554112 pts_time:426.7
lavfi.scene_score=0.373664
frame:97   pts:6557184 pts_time:426.9
lavfi.scene_score=0.384570
frame:98   pts:6560256 pts_time:427.1
lavfi.scene_score=0.399694
frame:99   pts:6563328 pts_time:427.3
lavfi.scene_score=0.402527
frame:100  pts:6566400 pts_time:427.5
lavfi.scene_score=0.373770
frame:101  pts:6569472 pts_time:427.7
lavfi.scene_score=0.365714
frame:102  pts:6572544 pts_time:427.9
lavfi.scene_score=0.382310
frame:103  pts:6575616 pts_time:428.1
lavfi.scene_score=0.342215
frame:104  pts:6578688 pts_time:428.3
lavfi.scene_score=0.310090
frame:105  pts:6588928 pts_time:428.967
lavfi.scene_score=0.465334
frame:106  pts:6619648 pts_time:430.967
lavfi.scene_score=0.434256
frame:107  pts:6661632 pts_time:433.7
lavfi.scene_score=0.366785
frame:108  pts:6712320 pts_time:437
lavfi.scene_score=0.567668
frame:109  pts:6773248 pts_time:440.967
lavfi.scene_score=0.603553
frame:110  pts:6849024 pts_time:445.9
lavfi.scene_score=0.575435
frame:111  pts:6896640 pts_time:449
lavfi.scene_score=0.754339
frame:112  pts:6909952 pts_time:449.867
lavfi.scene_score=0.350577
frame:113  pts:6967808 pts_time:453.633
lavfi.scene_score=0.313442
frame:114  pts:6970880 pts_time:453.833
lavfi.scene_score=0.335005
frame:115  pts:6972416 pts_time:453.933
lavfi.scene_score=0.545800
frame:116  pts:7007232 pts_time:456.2
lavfi.scene_score=0.563206
frame:117  pts:7072256 pts_time:460.433
lavfi.scene_score=0.341555
frame:118  pts:7163904 pts_time:466.4
lavfi.scene_score=0.693140
frame:119  pts:7190528 pts_time:468.133
lavfi.scene_score=0.360904
frame:120  pts:7268864 pts_time:473.233
lavfi.scene_score=1.000000
frame:121  pts:7271936 pts_time:473.433
lavfi.scene_score=0.793866
frame:122  pts:7273472 pts_time:473.533
lavfi.scene_score=0.843482
frame:123  pts:7275008 pts_time:473.633
lavfi.scene_score=0.522571
frame:124  pts:7275520 pts_time:473.667
lavfi.scene_score=0.305936
frame:125  pts:7276544 pts_time:473.733
lavfi.scene_score=0.773732
frame:126  pts:7278080 pts_time:473.833
lavfi.scene_score=0.535293
frame:127  pts:7279616 pts_time:473.933
lavfi.scene_score=0.613427
frame:128  pts:7281152 pts_time:474.033
lavfi.scene_score=0.807675
frame:129  pts:7282688 pts_time:474.133
lavfi.scene_score=0.530691
frame:130  pts:7283200 pts_time:474.167
lavfi.scene_score=0.603326
frame:131  pts:7284224 pts_time:474.233
lavfi.scene_score=0.971940
frame:132  pts:7287296 pts_time:474.433
lavfi.scene_score=0.792899
frame:133  pts:7288832 pts_time:474.533
lavfi.scene_score=0.844574
frame:134  pts:7290368 pts_time:474.633
lavfi.scene_score=0.505311
frame:135  pts:7290880 pts_time:474.667
lavfi.scene_score=0.300377
frame:136  pts:7291904 pts_time:474.733
lavfi.scene_score=0.736357
frame:137  pts:7293440 pts_time:474.833
lavfi.scene_score=0.489053
frame:138  pts:7294976 pts_time:474.933
lavfi.scene_score=0.585851
frame:139  pts:7296512 pts_time:475.033
lavfi.scene_score=0.790421
frame:140  pts:7298048 pts_time:475.133
lavfi.scene_score=0.530718
frame:141  pts:7298560 pts_time:475.167
lavfi.scene_score=0.601586
frame:142  pts:7299584 pts_time:475.233
lavfi.scene_score=0.968727
frame:143  pts:7302656 pts_time:475.433
lavfi.scene_score=0.793239
frame:144  pts:7304192 pts_time:475.533
lavfi.scene_score=0.845630
frame:145  pts:7305728 pts_time:475.633
lavfi.scene_score=0.499841
frame:146  pts:7306240 pts_time:475.667
lavfi.scene_score=0.300960
frame:147  pts:7307264 pts_time:475.733
lavfi.scene_score=0.732089
frame:148  pts:7308800 pts_time:475.833
lavfi.scene_score=0.495381
frame:149  pts:7310336 pts_time:475.933
lavfi.scene_score=0.590906
frame:150  pts:7311872 pts_time:476.033
lavfi.scene_score=0.792245
frame:151  pts:7313408 pts_time:476.133
lavfi.scene_score=0.526621
frame:152  pts:7313920 pts_time:476.167
lavfi.scene_score=0.605147
frame:153  pts:7314944 pts_time:476.233
lavfi.scene_score=0.971413
frame:154  pts:7318016 pts_time:476.433
lavfi.scene_score=0.792823
frame:155  pts:7388160 pts_time:481
lavfi.scene_score=0.779518
frame:156  pts:7445504 pts_time:484.733
lavfi.scene_score=0.867794
frame:157  pts:7446528 pts_time:484.8
lavfi.scene_score=0.900309
frame:158  pts:7487488 pts_time:487.467
lavfi.scene_score=0.846182
frame:159  pts:7539712 pts_time:490.867
lavfi.scene_score=0.885612
frame:160  pts:7587840 pts_time:494
lavfi.scene_score=0.753949
frame:161  pts:7609856 pts_time:495.433
lavfi.scene_score=0.798320
frame:162  pts:7649792 pts_time:498.033
lavfi.scene_score=0.750165
frame:163  pts:7690752 pts_time:500.7
lavfi.scene_score=0.611406
frame:164  pts:7740928 pts_time:503.967
lavfi.scene_score=0.785113
frame:165  pts:7742464 pts_time:504.067
lavfi.scene_score=0.735403
frame:166  pts:7798784 pts_time:507.733
lavfi.scene_score=0.724621
frame:167  pts:7836672 pts_time:510.2
lavfi.scene_score=0.633202
frame:168  pts:7869952 pts_time:512.367
lavfi.scene_score=0.446985
frame:169  pts:7872512 pts_time:512.533
lavfi.scene_score=0.560799
frame:170  pts:7875072 pts_time:512.7
lavfi.scene_score=0.524692
frame:171  pts:7877632 pts_time:512.867
lavfi.scene_score=0.385058
frame:172  pts:7900672 pts_time:514.367
lavfi.scene_score=0.707562
frame:173  pts:7943680 pts_time:517.167
lavfi.scene_score=0.589555
frame:174  pts:7958016 pts_time:518.1
lavfi.scene_score=0.635947
frame:175  pts:7984640 pts_time:519.833
lavfi.scene_score=0.455254
frame:176  pts:8037376 pts_time:523.267
lavfi.scene_score=0.425740
frame:177  pts:8079872 pts_time:526.033
lavfi.scene_score=0.614576
frame:178  pts:8096768 pts_time:527.133
lavfi.scene_score=0.787038
frame:179  pts:8103936 pts_time:527.6
lavfi.scene_score=0.737127
frame:180  pts:8138752 pts_time:529.867
lavfi.scene_score=0.647817
frame:181  pts:8185344 pts_time:532.9
lavfi.scene_score=0.397783
frame:182  pts:8199680 pts_time:533.833
lavfi.scene_score=0.526041
frame:183  pts:8228864 pts_time:535.733
lavfi.scene_score=0.698026
frame:184  pts:8256000 pts_time:537.5
lavfi.scene_score=0.811948
frame:185  pts:8306688 pts_time:540.8
lavfi.scene_score=0.648654
frame:186  pts:8324608 pts_time:541.967
lavfi.scene_score=0.538207
frame:187  pts:8325120 pts_time:542
lavfi.scene_score=0.301824
frame:188  pts:8368128 pts_time:544.8
lavfi.scene_score=0.707234
frame:189  pts:8386560 pts_time:546
lavfi.scene_score=0.741503
frame:190  pts:8408576 pts_time:547.433
lavfi.scene_score=0.788138
frame:191  pts:8454656 pts_time:550.433
lavfi.scene_score=0.572058
frame:192  pts:8482304 pts_time:552.233
lavfi.scene_score=0.730351
frame:193  pts:8501248 pts_time:553.467
lavfi.scene_score=0.715392
frame:194  pts:8542720 pts_time:556.167
lavfi.scene_score=0.736877
frame:195  pts:8578560 pts_time:558.5
lavfi.scene_score=0.333311
frame:196  pts:8581120 pts_time:558.667
lavfi.scene_score=0.438473
frame:197  pts:8604160 pts_time:560.167
lavfi.scene_score=0.947498
frame:198  pts:8636928 pts_time:562.3
lavfi.scene_score=0.493007
frame:199  pts:8709632 pts_time:567.033
lavfi.scene_score=0.781370
frame:200  pts:8761856 pts_time:570.433
lavfi.scene_score=0.810607
frame:201  pts:8802816 pts_time:573.1
lavfi.scene_score=0.785694
frame:202  pts:8872448 pts_time:577.633
lavfi.scene_score=1.000000
frame:203  pts:8926720 pts_time:581.167
lavfi.scene_score=0.362381
frame:204  pts:9331200 pts_time:607.5
lavfi.scene_score=1.000000
